<svg width="144" height="100" viewBox="0 0 144 100" fill="none" xmlns="http://www.w3.org/2000/svg">
<path d="M72 68.5183C71.128 68.5258 70.2622 68.37 69.4473 68.0588L3.99273 40.2949C2.80965 39.7925 1.8002 38.952 1.0902 37.8782C0.380199 36.8044 0.00104712 35.5448 0 34.2565C0.00104712 32.9681 0.380199 31.7085 1.0902 30.6347C1.8002 29.5609 2.80965 28.7204 3.99273 28.218L69.4473 0.519736C70.2549 0.176744 71.123 0 72 0C72.877 0 73.7451 0.176744 74.5527 0.519736L140.007 28.218C141.19 28.7204 142.2 29.5609 142.91 30.6347C143.62 31.7085 143.999 32.9681 144 34.2565C143.999 35.5448 143.62 36.8044 142.91 37.8782C142.2 38.952 141.19 39.7925 140.007 40.2949L74.5527 68.0588C73.7378 68.37 72.872 68.5258 72 68.5183ZM23.3673 34.2565L72 54.866L120.633 34.2565L72 13.7125L23.3673 34.2565Z" fill="#222222"/>
<path d="M72 100C42.9877 100 20.3077 86.3163 20.3077 68.7512V44.5417C20.3077 42.7969 20.9885 41.1236 22.2002 39.8898C23.412 38.6561 25.0555 37.963 26.7692 37.963C28.4829 37.963 30.1265 38.6561 31.3382 39.8898C32.55 41.1236 33.2308 42.7969 33.2308 44.5417V68.7512C33.2308 77.3035 49.8369 86.8426 72 86.8426C94.1631 86.8426 110.769 77.3035 110.769 68.7512V64.4751C110.769 62.7303 111.45 61.057 112.662 59.8232C113.874 58.5895 115.517 57.8964 117.231 57.8964C118.944 57.8964 120.588 58.5895 121.8 59.8232C123.012 61.057 123.692 62.7303 123.692 64.4751V68.7512C123.692 86.3163 101.012 100 72 100Z" fill="#222222"/>
<path d="M137.538 66.6667C135.825 66.6667 134.181 65.9838 132.969 64.7683C131.758 63.5528 131.077 61.9042 131.077 60.1852V34.2593C131.077 32.5403 131.758 30.8917 132.969 29.6762C134.181 28.4606 135.825 27.7778 137.538 27.7778C139.252 27.7778 140.896 28.4606 142.107 29.6762C143.319 30.8917 144 32.5403 144 34.2593V60.1852C144 61.9042 143.319 63.5528 142.107 64.7683C140.896 65.9838 139.252 66.6667 137.538 66.6667Z" fill="#222222"/>
</svg>
